HIERARCHY
ROOT Hips
{
	OFFSET 0.00000 0.00000 0.00000
	CHANNELS 6 Xposition Yposition Zposition Zrotation Yrotation Xrotation 
	JOINT LHipJoint
	{
		OFFSET 0 0 0
		CHANNELS 3 Zrotation Yrotation Xrotation
		JOINT LeftUpLeg
		{
			OFFSET 1.38615 -1.80049 0.80104
			CHANNELS 3 Zrotation Yrotation Xrotation
			JOINT LeftLeg
			{
				OFFSET 2.50172 -6.87341 0.00000
				CHANNELS 3 Zrotation Yrotation Xrotation
				JOINT LeftFoot
				{
					OFFSET 2.67523 -7.35014 0.00000
					CHANNELS 3 Zrotation Yrotation Xrotation
					JOINT LeftToeBase
					{
						OFFSET 0.17446 -0.47932 2.13155
						CHANNELS 3 Zrotation Yrotation Xrotation
						End Site
						{
							OFFSET 0.00000 -0.00000 1.10023
						}
					}
				}
			}
		}
	}
	JOINT RHipJoint
	{
		OFFSET 0 0 0
		CHANNELS 3 Zrotation Yrotation Xrotation
		JOINT RightUpLeg
		{
			OFFSET -1.18047 -1.80049 0.80104
			CHANNELS 3 Zrotation Yrotation Xrotation
			JOINT RightLeg
			{
				OFFSET -2.59789 -7.13765 0.00000
				CHANNELS 3 Zrotation Yrotation Xrotation
				JOINT RightFoot
				{
					OFFSET -2.62125 -7.20183 0.00000
					CHANNELS 3 Zrotation Yrotation Xrotation
					JOINT RightToeBase
					{
						OFFSET -0.31287 -0.85960 2.07814
						CHANNELS 3 Zrotation Yrotation Xrotation
						End Site
						{
							OFFSET -0.00000 -0.00000 1.11766
						}
					}
				}
			}
		}
	}
	JOINT LowerBack
	{
		OFFSET 0 0 0
		CHANNELS 3 Zrotation Yrotation Xrotation
		JOINT Spine
		{
			OFFSET -0.01587 2.16157 -0.12309
			CHANNELS 3 Zrotation Yrotation Xrotation
			JOINT Spine1
			{
				OFFSET 0.04727 2.16674 -0.03569
				CHANNELS 3 Zrotation Yrotation Xrotation
				JOINT Neck
				{
					OFFSET 0 0 0
					CHANNELS 3 Zrotation Yrotation Xrotation
					JOINT Neck1
					{
						OFFSET -0.08586 1.60335 0.32783
						CHANNELS 3 Zrotation Yrotation Xrotation
						JOINT Head
						{
							OFFSET 0.07583 1.65857 -0.31618
							CHANNELS 3 Zrotation Yrotation Xrotation
							End Site
							{
								OFFSET 0.03386 1.69434 -0.14584
							}
						}
					}
				}
				JOINT LeftShoulder
				{
					OFFSET 0 0 0
					CHANNELS 3 Zrotation Yrotation Xrotation
					JOINT LeftArm
					{
						OFFSET 3.17393 1.01901 -0.52897
						CHANNELS 3 Zrotation Yrotation Xrotation
						JOINT LeftForeArm
						{
							OFFSET 5.25287 -0.00000 -0.00000
							CHANNELS 3 Zrotation Yrotation Xrotation
							JOINT LeftHand
							{
								OFFSET 3.51014 -0.00000 0.00000
								CHANNELS 3 Zrotation Yrotation Xrotation
								JOINT LeftFingerBase
								{
									OFFSET 0 0 0
									CHANNELS 3 Zrotation Yrotation Xrotation
									JOINT LeftHandIndex1
									{
										OFFSET 0.70618 -0.00000 -0.00000
										CHANNELS 3 Zrotation Yrotation Xrotation
										End Site
										{
											OFFSET 0.56934 -0.00000 -0.00000
										}
									}
								}
								JOINT LThumb
								{
									OFFSET 0 0 0
									CHANNELS 3 Zrotation Yrotation Xrotation
									End Site
									{
										OFFSET 0.57803 -0.00000 0.57803
									}
								}
							}
						}
					}
				}
				JOINT RightShoulder
				{
					OFFSET 0 0 0
					CHANNELS 3 Zrotation Yrotation Xrotation
					JOINT RightArm
					{
						OFFSET -2.99471 1.26495 -0.61125
						CHANNELS 3 Zrotation Yrotation Xrotation
						JOINT RightForeArm
						{
							OFFSET -5.28721 -0.00000 -0.00000
							CHANNELS 3 Zrotation Yrotation Xrotation
							JOINT RightHand
							{
								OFFSET -3.50544 -0.00000 0.00000
								CHANNELS 3 Zrotation Yrotation Xrotation
								JOINT RightFingerBase
								{
									OFFSET 0 0 0
									CHANNELS 3 Zrotation Yrotation Xrotation
									JOINT RightHandIndex1
									{
										OFFSET -0.88500 -0.00000 -0.00000
										CHANNELS 3 Zrotation Yrotation Xrotation
										End Site
										{
											OFFSET -0.71351 -0.00000 -0.00000
										}
									}
								}
								JOINT RThumb
								{
									OFFSET 0 0 0
									CHANNELS 3 Zrotation Yrotation Xrotation
									End Site
									{
										OFFSET -0.72440 -0.00000 0.72440
									}
								}
							}
						}
					}
				}
			}
		}
	}
}
MOTION
Frames: 11
Frame Time: 0.0666667
0.00 0.00 0.00 0 0 0 0 0 0 -21 0 0 0 0 0 0 0 0 0 0 0 0 0 0 21 0 0 0 0 0 0 0 0 0 0 0 0 0 0 0 0 0 0 0 0 0 0 -16 0 0 21 0 0 11 0 0 0 -8 0 0 0 0 0 0 0 0 0 0 0 0 0 0 0 0 0 0 0 0 8 0 0 0 0 0 0 0 0 0 0 0 0 0 0 0 0 0
0.00 0.00 0.00 -0.0539 -5.5561 -24.8694 0.0000 0.0000 0.0000 22.0415 1.9231 -63.2998 23.3526 19.7284 99.8450 -4.1136 -35.2376 1.0232 0.5283 -4.6576 -12.9345 0.0000 0.0000 0.0000 -10.6037 -6.9003 -69.4225 -27.9575 -18.4086 113.8765 -0.5756 8.5469 -13.9067 -0.0863 -1.8951 5.2159 2.2368 3.4228 41.4567 -0.2820 5.0803 9.6489 -3.5545 2.3591 -8.8076 -2.1044 -4.3278 -10.3236 8.5697 -6.1303 4.4331 2.5753 -2.6984 3.3413 0.0000 -0.0000 0.0000 -65.6252 -28.4622 61.2405 66.0784 -57.7233 -39.4416 -0.0000 -0.0000 13.6112 10.4178 43.5686 7.2219 -7.1250 0.0000 -0.0000 -40.8804 70.1012 -25.9349 0.0000 -0.0000 0.0000 66.3003 19.8629 39.0533 -69.7795 58.3973 -42.5827 0.0000 0.0000 6.3887 -4.6587 18.0251 -1.4444 7.1250 -0.0000 -0.0000 15.2742 -12.3592 12.0991
0.00 0.00 0.00 -4.3352 -1.8909 -13.2285 0.0000 0.0000 0.0000 23.8636 10.8270 -72.1260 18.8362 19.9675 86.5955 -0.6068 -16.8950 -4.4548 0.9127 -6.0873 -17.0379 0.0000 0.0000 0.0000 -21.9694 -7.1926 -51.5531 -26.2251 -19.0443 108.4842 -2.2200 12.8439 -26.9589 -3.4822 11.4375 -33.7698 6.2229 1.7156 44.8725 2.6146 5.3782 7.5234 -2.7990 2.1961 -12.1547 -7.3592 -5.0315 -10.6691 8.1114 -5.9932 -2.0364 3.6929 -2.7914 1.7624 0.0000 -0.0000 0.0000 -72.4760 -38.8556 46.6957 55.8812 -55.1086 -30.9375 -0.0000 -0.0000 9.5757 7.5371 41.0334 4.9644 -7.1250 0.0000 -0.0000 -39.1837 67.3328 -22.4095 0.0000 -0.0000 0.0000 62.1497 22.0530 32.0391 -58.7201 55.9591 -33.2783 0.0000 -0.0000 -7.7881 -7.3195 15.7205 -1.9932 7.1250 -0.0000 -0.0000 13.6300 -14.4400 10.0955
0.00 0.00 0.00 -5.8675 -0.3016 -7.7196 0.0000 0.0000 0.0000 21.4184 14.2217 -76.9542 17.1799 19.8082 81.7293 -1.4284 -20.6796 10.0781 0.5927 -4.9290 -13.7062 0.0000 0.0000 0.0000 -19.1359 -9.9833 -53.9585 -25.6981 -19.2030 106.8757 -2.9661 10.9766 -31.0767 -3.6897 11.7356 -34.8029 5.6029 0.9362 43.9815 4.5399 4.3656 7.6139 0.0797 1.7504 -12.0791 -13.3102 -5.0799 -17.6852 9.2615 -4.4373 -1.4263 4.6689 -1.7938 2.8674 -0.0000 -0.0000 0.0000 -85.9679 -49.2989 52.8806 35.4066 -45.1003 -15.1007 -0.0000 0.0000 -3.3106 4.7975 36.1936 2.8373 -7.1250 0.0000 -0.0000 -35.1926 62.7932 -16.2442 -0.0000 -0.0000 0.0000 70.1352 36.6731 35.0458 -38.7581 47.3167 -17.5208 0.0000 -0.0000 -6.6172 -21.5525 25.1550 -9.5304 7.1250 -0.0000 -0.0000 4.8799 -3.2742 4.6103
0.00 0.00 0.00 -8.6551 9.5824 7.0733 0.0000 0.0000 0.0000 17.3382 7.9591 -88.5205 16.2166 19.6533 78.8765 -0.8562 -16.2090 4.2746 3.0436 -10.7653 -31.4925 0.0000 0.0000 0.0000 -12.8614 -5.8215 -48.1713 -21.0733 -19.9724 93.1396 -3.2185 2.7462 -33.3286 -3.2894 11.1495 -32.7857 2.4616 0.8959 41.4479 4.4322 2.8863 6.9529 2.2468 1.2157 -12.2729 -13.6568 -9.3346 -25.7992 13.9494 -8.5317 -9.8426 5.8092 -3.3529 2.1470 -0.0000 -0.0000 0.0000 -114.5125 -48.6157 69.0808 41.7704 -49.0845 -19.7668 -0.0000 0.0000 -5.4239 31.5506 28.1678 16.1642 -7.1250 0.0000 -0.0000 1.3215 62.1185 0.5502 -0.0000 -0.0000 0.0000 89.2074 39.8155 30.8504 -52.8128 54.0688 -28.4364 0.0000 -0.0000 -18.7805 -46.0906 33.8021 -30.0243 7.1250 -0.0000 -0.0000 -7.1572 13.7112 -8.7089
0.00 0.00 0.00 -10.2334 14.4520 9.9981 0.0000 0.0000 0.0000 13.7438 6.6806 -86.9794 14.1818 19.1683 72.7591 -1.0107 -17.4901 5.5074 1.0482 -6.5105 -18.2729 0.0000 0.0000 0.0000 -5.5755 -5.0835 -38.6414 -15.9008 -19.5923 77.9360 -2.8608 -6.3230 -34.6301 -2.9696 10.6457 -31.0940 2.0368 0.6000 39.1557 3.7442 2.2089 6.4455 2.0279 0.9564 -12.0515 -13.2180 -11.6042 -21.8640 17.3918 -12.1508 -11.3613 6.4660 -5.2815 1.9560 0.0000 -0.0000 0.0000 -110.0597 -45.3207 67.2654 60.2321 -56.3715 -34.5343 -0.0000 0.0000 -4.0162 33.8829 36.8046 21.9155 -7.1250 0.0000 -0.0000 -0.1181 72.0073 -0.0758 0.0000 -0.0000 0.0000 93.0854 32.9460 33.3664 -72.8551 58.8597 -45.2090 0.0000 -0.0000 -19.1631 -48.8013 30.6418 -30.2088 7.1250 -0.0000 -0.0000 -9.5538 11.4756 -11.4065
0.00 0.00 0.00 -11.6953 19.4757 8.5437 0.0000 0.0000 0.0000 10.4960 6.4272 -79.7379 11.7323 18.2752 65.1378 -1.5902 -21.8576 5.0618 0.7129 -5.3961 -15.0418 0.0000 0.0000 0.0000 -1.4146 -6.0714 -30.2807 -13.4071 -18.9242 70.3852 -0.7960 -9.0645 -22.4731 -2.9427 10.6017 -30.9482 1.6479 0.6507 35.4719 4.1378 2.0784 6.6367 2.7059 0.9527 -10.6680 -15.1611 -13.5488 -16.7377 22.2344 -15.3015 -10.3077 7.9420 -6.9612 2.7301 0.0000 0.0000 0.0000 -104.0480 -40.0327 63.8125 74.7532 -59.1031 -46.8356 -0.0000 0.0000 -4.7363 33.7973 40.8617 23.6500 -7.1250 0.0000 -0.0000 -4.7964 76.0882 -3.5042 0.0000 0.0000 0.0000 93.8128 25.1723 36.7821 -87.6905 59.9798 -58.0001 0.0000 -0.0000 -16.7693 -49.5422 31.1742 -31.2571 7.1250 -0.0000 -0.0000 -9.7783 12.4694 -11.8118
0.00 0.00 0.00 -11.9618 22.7683 7.7867 0.0000 0.0000 0.0000 8.2184 5.9699 -76.7503 10.5126 17.6882 61.1884 -1.6178 -22.1427 4.3806 1.2062 -6.9676 -19.6194 0.0000 0.0000 0.0000 -0.8991 -7.3223 -28.4761 -13.2585 -18.8735 69.9263 0.5109 -13.1387 -9.0475 -2.6134 10.0412 -29.1101 2.0093 0.5575 33.0958 4.4550 2.0645 6.5252 2.8696 0.9633 -9.8875 -15.2338 -14.5226 -14.0030 23.5107 -17.0990 -9.8419 8.1563 -7.9905 2.9460 -0.0000 0.0000 0.0000 -101.6040 -36.2995 62.1826 81.8236 -59.7459 -52.9251 -0.0000 0.0000 -6.2920 34.1229 41.1450 24.0302 -7.1250 0.0000 -0.0000 -4.6126 76.4876 -3.4086 -0.0000 0.0000 0.0000 93.0414 21.5950 37.6746 -92.7510 59.9714 -62.3822 0.0000 -0.0000 -13.3253 -50.7168 31.0028 -32.1978 7.1250 -0.0000 -0.0000 -10.4463 12.8952 -12.7008
0.00 0.00 0.00 -12.3131 27.8912 5.3876 0.0000 0.0000 0.0000 2.7909 8.8231 -69.8242 8.5390 16.5017 54.4818 -0.2013 -11.1089 -4.2479 0.8349 -5.8289 -16.2888 0.0000 0.0000 0.0000 -0.1030 -7.8234 -24.4390 -13.6094 -18.9913 71.0079 -0.3382 -7.2692 10.8077 -1.2239 7.0169 -19.7655 1.8190 0.5528 29.3593 4.9370 1.9526 6.5432 3.8061 0.9813 -8.9398 -14.8486 -16.5596 -11.8098 24.2122 -20.7172 -7.0252 7.6907 -9.7973 4.1399 0.0000 -0.0000 0.0000 -94.6533 -30.8685 55.3897 97.5615 -59.7828 -66.5437 -0.0000 0.0000 -11.3443 34.7224 41.9834 24.8708 -7.1250 0.0000 -0.0000 -4.7991 77.5342 -3.6516 0.0000 -0.0000 0.0000 92.6904 18.4536 42.4627 -102.2222 59.4280 -70.5644 0.0000 -0.0000 -8.7228 -46.5950 32.6083 -29.6729 7.1250 -0.0000 -0.0000 -7.7915 12.6258 -9.3829
0.00 0.00 0.00 -11.8526 31.3817 5.6060 0.0000 0.0000 0.0000 5.0857 6.3402 -62.8016 8.3698 16.3846 53.8840 0.0068 -0.0561 -1.5339 0.2897 -3.4612 -9.5655 0.0000 0.0000 0.0000 -0.1772 -9.8698 -26.3862 -15.3282 -19.4685 76.2234 -0.0149 -0.1554 2.2513 -3.2019 11.0149 -32.3302 1.3641 0.6914 25.2926 5.8864 1.9814 5.3655 5.1196 1.0301 -8.2850 -14.7684 -17.6268 -11.2128 24.0356 -22.6596 -4.5861 7.2126 -10.6611 5.0814 -0.0000 0.0000 0.0000 -88.8963 -29.3702 45.5080 113.9733 -57.7129 -80.6021 -0.0000 0.0000 -19.0438 30.7235 43.7866 22.3549 -7.1250 0.0000 -0.0000 -15.9364 77.6782 -12.2224 -0.0000 0.0000 0.0000 87.6939 24.0057 48.4913 -108.7281 58.6323 -76.1446 0.0000 -0.0000 -4.1650 -35.7420 30.9256 -20.2976 7.1250 -0.0000 -0.0000 -2.4096 6.4230 -2.6663
0.00 0.00 0.00 -8.0615 27.4058 7.0574 0.0000 0.0000 0.0000 13.1814 -0.0647 -49.0759 9.1586 16.9087 56.6371 -0.1828 -12.9979 -6.5446 5.5124 -13.9385 -42.9918 0.0000 0.0000 0.0000 -7.7105 -7.8974 -35.0615 -16.7869 -19.7507 80.5679 -0.0145 1.2635 -2.1801 -1.9884 8.8419 -25.3020 0.1029 1.3463 23.6244 4.5040 2.3459 3.2513 4.2039 1.2273 -9.7970 -13.8259 -17.3228 -10.7502 22.6348 -22.9792 -0.4801 6.5529 -10.6752 5.9885 0.0000 -0.0000 0.0000 -74.8083 -30.7371 25.4755 131.0800 -52.5505 -94.6858 -0.0000 0.0000 -32.9365 29.7934 49.1981 23.4322 -7.1250 0.0000 -0.0000 -37.7265 81.4902 -32.2034 0.0000 -0.0000 0.0000 83.6846 45.9795 61.7750 -111.4747 58.1837 -78.4842 0.0000 -0.0000 -10.7914 -16.8075 16.8815 -5.0129 7.1250 -0.0000 -0.0000 7.3252 -12.4976 5.6136
